HIERARCHY
ROOT Hips
{
  OFFSET -29.2858 40.1646 51.542
  CHANNELS 6 Xposition Yposition Zposition Zrotation Xrotation Yrotation
  JOINT LeftHip
  {
    OFFSET 3.43 1.42109e-014 -3.9968e-015
    CHANNELS 6 Xposition Yposition Zposition Zrotation Xrotation Yrotation
    JOINT LeftKnee
    {
      OFFSET -2.4869e-014 -18.47 2.19824e-014
      CHANNELS 6 Xposition Yposition Zposition Zrotation Xrotation Yrotation
      JOINT LeftAnkle
      {
        OFFSET -3.55271e-015 -17.95 -4.44089e-015
        CHANNELS 6 Xposition Yposition Zposition Zrotation Xrotation Yrotation
        End Site
        {
          OFFSET 0 -3.12 0
        }
      }
    }
  }
  JOINT RightHip
  {
    OFFSET -3.43 -7.10543e-015 -4.44089e-016
    CHANNELS 6 Xposition Yposition Zposition Zrotation Xrotation Yrotation
    JOINT RightKnee
    {
      OFFSET 1.5099e-014 -18.47 9.23706e-014
      CHANNELS 6 Xposition Yposition Zposition Zrotation Xrotation Yrotation
      JOINT RightAnkle
      {
        OFFSET 1.42109e-014 -17.95 7.10543e-015
        CHANNELS 6 Xposition Yposition Zposition Zrotation Xrotation Yrotation
        End Site
        {
          OFFSET 0 -3.12 0
        }
      }
    }
  }
  JOINT Chest
  {
    OFFSET -6.39488e-014 4.57 -2.17604e-014
    CHANNELS 6 Xposition Yposition Zposition Zrotation Xrotation Yrotation
    JOINT Chest2
    {
      OFFSET 3.55271e-015 6.57 9.76996e-015
      CHANNELS 6 Xposition Yposition Zposition Zrotation Xrotation Yrotation
      JOINT LeftCollar
      {
        OFFSET 1.06 4.19 1.76
        CHANNELS 6 Xposition Yposition Zposition Zrotation Xrotation Yrotation
        JOINT LeftShoulder
        {
          OFFSET 5.81 -3.55271e-014 7.99361e-015
          CHANNELS 6 Xposition Yposition Zposition Zrotation Xrotation Yrotation
          JOINT LeftElbow
          {
            OFFSET -2.84217e-014 -12.08 7.10543e-014
            CHANNELS 6 Xposition Yposition Zposition Zrotation Xrotation Yrotation
            JOINT LeftWrist
            {
              OFFSET -1.42109e-014 -9.82 -8.88178e-016
              CHANNELS 6 Xposition Yposition Zposition Zrotation Xrotation Yrotation
              End Site
              {
                OFFSET 0 -7.37 0
              }
            }
          }
        }
      }
      JOINT RightCollar
      {
        OFFSET -1.06 4.19 1.76
        CHANNELS 6 Xposition Yposition Zposition Zrotation Xrotation Yrotation
        JOINT RightShoulder
        {
          OFFSET -6.06 -1.42109e-014 -3.24185e-014
          CHANNELS 6 Xposition Yposition Zposition Zrotation Xrotation Yrotation
          JOINT RightElbow
          {
            OFFSET 1.42109e-014 -11.08 6.75016e-014
            CHANNELS 6 Xposition Yposition Zposition Zrotation Xrotation Yrotation
            JOINT RightWrist
            {
              OFFSET 0 -9.82 -1.77636e-015
              CHANNELS 6 Xposition Yposition Zposition Zrotation Xrotation Yrotation
              End Site
              {
                OFFSET 0 -7.14001 0
              }
            }
          }
        }
      }
      JOINT Neck
      {
        OFFSET 1.06581e-014 4.05 -5.55112e-015
        CHANNELS 6 Xposition Yposition Zposition Zrotation Xrotation Yrotation
        JOINT Head
        {
          OFFSET 3.55271e-015 5.19 0
          CHANNELS 6 Xposition Yposition Zposition Zrotation Xrotation Yrotation
          End Site
          {
            OFFSET 0 4.14001 0
          }
        }
      }
    }
  }
}
MOTION
Frames:	7
Frame Time:	0.0333333
-1.06049 38.7551 13.6166 -0.493546 -0.461529 137.337 3.43 -1.14464e-013 2.176e-012 -5.07472 -4.95561 3.39008 -2.4869e-014 -18.47 -4.17568e-012 0.0928229 23.5809 23.1338 -3.55271e-015 -17.95 -4.44089e-015 -2.94982 -20.045 -0.522543 -3.43 -3.30014e-013 -1.45859e-012 -1.62759 -19.1162 -1.85522 1.5099e-014 -18.47 -1.21767e-012 -0.525944 1.2841 -10.7096 1.42109e-014 -17.95 1.42718e-011 1.37198 8.7053 -0.104279 -2.72069e-012 4.57 2.41764e-012 -1.31068 0.910407 -1.26674 3.55271e-015 6.57 9.76996e-015 -1.07671 0.802317 -1.26511 1.06 4.19 1.76 1.72058 0.534585 -1.82068 5.81 6.12992e-013 -2.53206e-014 19.9161 -12.2778 -23.1767 6.78491e-013 -12.08 -4.02069e-013 -8.41108 -54.2755 -22.6541 -1.42109e-014 -9.82 -8.88178e-016 0.401519 2.90676 -0.0101099 -1.06 4.19 1.76 9.07217 1.2331 4.45557 -6.06 1.78147e-012 -1.11887e-013 -30.1173 11.647 13.6999 -9.9602e-013 -11.08 4.74412e-013 11.0591 -48.2617 30.431 0 -9.82 -1.77636e-015 -4.93739 5.1896 0.223965 1.06581e-014 4.05 -5.55112e-015 0.629576 15.0342 -3.81573 3.55271e-015 5.19 0 2.90456 4.77776 -4.35999 
-0.479454 38.5602 12.9154 -1.00985 -1.16738 137.616 3.43 -1.0536e-013 2.15755e-012 -5.31266 -4.55662 3.03071 -2.4869e-014 -18.47 -4.17335e-012 0.65453 24.3795 23.3023 -3.55271e-015 -17.95 -4.44089e-015 -4.1914 -21.7937 -0.806569 -3.43 -1.73442e-013 -1.47785e-012 -1.71763 -20.9798 -1.75872 1.5099e-014 -18.47 -1.20941e-012 0.199056 0.276262 -9.25939 1.42109e-014 -17.95 1.42933e-011 2.1326 9.68044 -0.179142 -2.73983e-012 4.57 2.42711e-012 -0.886662 0.239085 -1.47273 3.55271e-015 6.57 9.76996e-015 -0.672406 0.190398 -1.41249 1.06 4.19 1.76 1.95511 0.526833 -1.65466 5.81 6.34995e-013 -1.85848e-014 18.3946 -12.4925 -22.9607 7.01447e-013 -12.08 -4.41106e-013 -7.66928 -54.925 -23.1165 -1.42109e-014 -9.82 -8.88178e-016 0.212449 3.13445 -0.00585928 -1.06 4.19 1.76 9.17069 1.24282 4.49118 -6.06 1.80004e-012 -1.28694e-013 -30.4756 12.6872 13.7351 -1.01713e-012 -11.08 4.90762e-013 11.1001 -47.9646 30.4823 0 -9.82 -1.77636e-015 -4.70266 5.06374 0.207987 1.06581e-014 4.05 -5.55112e-015 0.56078 15.1241 -3.81857 3.55271e-015 5.19 0 2.95662 4.7785 -4.3863 
0.220627 38.3912 12.1761 -1.37032 -1.38514 138.072 3.43 5.11924e-013 2.1388e-012 -5.47787 -3.20248 2.92834 -2.4869e-014 -18.47 -4.17081e-012 1.03047 24.2357 23.0206 -3.55271e-015 -17.95 -4.44089e-015 -5.1984 -23.1123 -1.06411 -3.43 2.24563e-013 -1.49649e-012 -1.88935 -21.8364 -2.00273 1.5099e-014 -18.47 -1.20102e-012 0.612884 0.745486 -10.0932 1.42109e-014 -17.95 1.43138e-011 1.96024 9.0608 -0.160215 -2.75885e-012 4.57 2.43626e-012 -0.660238 -0.205292 -1.7735 3.55271e-015 6.57 9.76996e-015 -0.439981 -0.217393 -1.66229 1.06 4.19 1.76 1.86746 0.53009 -1.69534 5.81 6.49187e-013 -1.50571e-014 17.7411 -11.7333 -23.016 7.24128e-013 -12.08 -4.7103e-013 -7.379 -55.45 -22.835 -1.42109e-014 -9.82 -8.88178e-016 0.283582 3.10313 -0.00767357 -1.06 4.19 1.76 9.25173 1.25008 4.51047 -6.06 1.81841e-012 -1.37907e-013 -30.3243 13.8275 13.4448 -1.03748e-012 -11.08 4.91148e-013 11.0493 -47.1122 30.5097 0 -9.82 -1.77636e-015 -4.82541 4.99895 0.210625 1.06581e-014 4.05 -5.55112e-015 0.433914 15.3409 -3.77222 3.55271e-015 5.19 0 3.04462 4.54692 -4.37097 
1.04262 38.244 11.3877 -1.33327 -1.57275 138.7 3.43 -3.9968e-014 2.11976e-012 -5.16469 -0.896964 3.16823 -2.4869e-014 -18.47 -4.16807e-012 1.38579 23.1784 22.1444 -3.55271e-015 -17.95 -4.44089e-015 -6.05759 -24.1947 -1.29868 -3.43 4.29294e-013 -1.51451e-012 -1.65114 -24.1446 -2.24533 1.5099e-014 -18.47 -1.19248e-012 0.994918 5.83604 -12.2778 1.42109e-014 -17.95 1.43336e-011 0.355542 6.31658 -0.0183616 -2.77777e-012 4.57 2.4451e-012 -0.215158 -0.491548 -2.18951 3.55271e-015 6.57 9.76996e-015 0.00180628 -0.482189 -1.99633 1.06 4.19 1.76 1.63083 0.540728 -1.71455 5.81 6.55266e-013 -1.40104e-014 17.5566 -10.7369 -23.5885 7.46536e-013 -12.08 -4.92432e-013 -7.87649 -55.3385 -22.8425 -1.42109e-014 -9.82 -8.88178e-016 0.468216 2.72532 -0.0111686 -1.06 4.19 1.76 9.38304 1.25324 4.43072 -6.06 1.83656e-012 -1.40235e-013 -30.0904 15.0503 12.6933 -1.05705e-012 -11.08 4.76925e-013 10.9051 -46.3671 30.3453 0 -9.82 -1.77636e-015 -4.23126 5.09298 0.18847 1.06581e-014 4.05 -5.55112e-015 0.234337 15.3688 -3.81705 3.55271e-015 5.19 0 2.9789 4.33272 -4.37267 
1.95028 38.1637 10.5749 -1.32722 -1.77821 139.54 3.43 0 2.10044e-012 -4.73472 3.03911 3.52826 -2.4869e-014 -18.47 -4.16511e-012 1.54033 19.3292 20.2334 -3.55271e-015 -17.95 -4.44089e-015 -6.05009 -24.3444 -1.30598 -3.43 6.16119e-013 -1.53188e-012 -1.43178 -25.8741 -2.38152 1.5099e-014 -18.47 -1.1838e-012 0.933825 10.7587 -13.7525 1.42109e-014 -17.95 1.43525e-011 -1.22096 6.87941 0.0764457 -2.79658e-012 4.57 2.45362e-012 0.195156 -0.814543 -2.65623 3.55271e-015 6.57 9.76996e-015 0.419048 -0.782675 -2.37707 1.06 4.19 1.76 1.52173 0.546516 -1.67429 5.81 6.52935e-013 -1.47171e-014 17.3873 -9.24768 -24.4257 7.68672e-013 -12.08 -5.05901e-013 -8.67772 -54.5172 -23.178 -1.42109e-014 -9.82 -8.88178e-016 0.680893 1.95619 -0.0117849 -1.06 4.19 1.76 9.39664 1.24509 4.31422 -6.06 1.85451e-012 -1.36386e-013 -29.523 16.4363 11.7573 -1.07585e-012 -11.08 4.49444e-013 10.6187 -45.3294 30.2033 0 -9.82 -1.77636e-015 -3.61008 4.93304 0.155374 1.06581e-014 4.05 -5.55112e-015 0.148193 15.3751 -3.95214 3.55271e-015 5.19 0 2.79982 3.93006 -4.35975 
2.96562 38.1656 9.72384 -1.09345 -2.08519 140.703 3.43 0 2.08081e-012 -4.03283 8.42471 3.90439 -2.4869e-014 -18.47 -4.16195e-012 2.14344 12.4293 18.2973 -3.55271e-015 -17.95 -4.44089e-015 -6.04214 -22.8523 -1.22345 -3.43 7.85481e-013 -1.5486e-012 -1.2808 -25.9509 -2.95579 1.5099e-014 -18.47 -1.17498e-012 1.20926 13.6335 -17.0379 1.42109e-014 -17.95 1.43706e-011 -1.36346 8.82997 0.111078 -2.81527e-012 4.57 2.46183e-012 0.726336 -1.20543 -3.28718 3.55271e-015 6.57 9.76996e-015 0.959541 -1.14663 -2.89289 1.06 4.19 1.76 1.44455 0.552686 -1.51813 5.81 6.41892e-013 -1.64501e-014 17.128 -6.94919 -25.3746 7.90536e-013 -12.08 -5.12027e-013 -9.68081 -53.004 -23.1574 -1.42109e-014 -9.82 -8.88178e-016 1.21917 1.99858 -0.0221368 -1.06 4.19 1.76 9.39075 1.22711 4.09054 -6.06 1.87223e-012 -1.27069e-013 -28.9345 18.009 11.1257 -1.09387e-012 -11.08 4.10059e-013 10.3742 -44.0952 29.5604 0 -9.82 -1.77636e-015 -3.10565 4.91402 0.133043 1.06581e-014 4.05 -5.55112e-015 0.100444 15.4321 -4.12461 3.55271e-015 5.19 0 2.72479 3.79336 -4.38975 
4.04526 38.3223 8.89814 -0.283873 -2.83016 141.631 3.43 0 2.0609e-012 -2.63922 14.0798 4.58068 -2.4869e-014 -18.47 -4.15857e-012 2.87694 4.62713 15.8254 -3.55271e-015 -17.95 -4.44089e-015 -5.96064 -19.6526 -1.03143 -3.43 9.37825e-013 -1.56466e-012 -0.257276 -25.5435 -3.11667 1.5099e-014 -18.47 -1.16602e-012 1.84876 16.1201 -21.0801 1.42109e-014 -17.95 1.43879e-011 -0.0803093 6.30185 0.00175755 -2.83386e-012 4.57 2.46974e-012 1.8464 -1.5331 -3.67541 3.55271e-015 6.57 9.76996e-015 2.01163 -1.44591 -3.13726 1.06 4.19 1.76 1.19201 0.565208 -1.44994 5.81 6.21838e-013 -1.84818e-014 16.3207 -3.81589 -25.2931 8.1213e-013 -12.08 -5.114e-013 -9.48083 -50.6794 -24.2836 -1.42109e-014 -9.82 -8.88178e-016 0.482565 2.38451 -0.00501812 -1.06 4.19 1.76 9.53318 1.22407 3.93046 -6.06 1.88974e-012 -1.12993e-013 -28.8473 19.558 10.4593 -1.1111e-012 -11.08 3.60122e-013 10.226 -42.874 28.3706 0 -9.82 -1.77636e-015 -3.57753 4.42596 0.1384 1.06581e-014 4.05 -5.55112e-015 -0.139062 15.4877 -4.39694 3.55271e-015 5.19 0 2.75148 3.92319 -4.63005 
